<?xml version="1.0" encoding="utf-8"?>
<!-- Generator: Adobe Illustrator 16.0.0, SVG Export Plug-In . SVG Version: 6.00 Build 0)  -->
<svg version="1.1" id="Capa_1" xmlns="http://www.w3.org/2000/svg" xmlns:xlink="http://www.w3.org/1999/xlink" x="0px" y="0px"
	 fill="#fff" width="55px" height="55px" viewBox="0 0 612 792" enable-background="new 0 0 612 792" xml:space="preserve">
<g>
	<path d="M449.805,400.252c1.124-2.715,1.124-5.774,0-8.501c-0.567-1.369-1.392-2.604-2.415-3.638L313.874,254.607
		c-4.352-4.351-11.384-4.351-15.734,0c-4.351,4.351-4.351,11.383,0,15.734l114.533,114.533H172.479
		c-6.153,0-11.127,4.974-11.127,11.127s4.974,11.127,11.127,11.127h240.193L298.14,521.662c-4.351,4.351-4.351,11.383,0,15.734
		c2.17,2.169,5.019,3.26,7.867,3.26s5.697-1.091,7.867-3.26L447.39,403.88C448.413,402.856,449.237,401.621,449.805,400.252z"/>
	<circle fill="none" stroke="#fff" stroke-width="20" stroke-miterlimit="10" cx="306" cy="396" r="238"/>
</g>
</svg>
